# xmcd
#
# Track frame offsets: 
#        150
#        13208
#        25208
#        37305
#        48418
#        58482
#        69203
#        80537
#        91332
#        102213
#        113359
#        123513
#        135084
#        147363
#        159104
#        170624
#        181592
#        194133
#        209602
#        224724
#        241517
#        254330
#        267822
#
# Disc length: 3779 seconds
#
# Revision: 0
# Processed by: cddbd v1.5.2PL0 Copyright (c) Steve Scherf et al.
# Submitted via: ExactAudioCopy v1.1
#
DISCID=480ec117
DTITLE=Various Artist - All-Time Country Favourites Tearjerkers
DYEAR=2012
DGENRE=Country
TTITLE0=Bobby Gentry - I'll never fall in love again
TTITLE1=Charley Pride - I don't think she's in love anymore
TTITLE2=Willie Nelson - Funny how time slips away
TTITLE3=Eddy Arnold - Just call me lonesome
TTITLE4=Tammy Wynette - Lonely street
TTITLE5=Sonny James - Only love can break a heart
TTITLE6=Porter Waggoner and Dolly Parton - Holding on to nothin'
TTITLE7=Jack Greene - Together again
TTITLE8=Lefty Frizzell - She's gone, gone, gone
TTITLE9=Patsy Cline - Leavin' on your mind
TTITLE10=Jim Reeves - I heard a heart break last night
TTITLE11=Wanda Jackson - If I cried every time you hurt me
TTITLE12=Burl Ives - Call me Mr In Between
TTITLE13=Skeeter Davis - My last date ( with you )
TTITLE14=Tex Ritter - Have I told you lately that I love you ?
TTITLE15=Hank Williams - Why don't you love me
TTITLE16=Louvin Brothers - My baby's gone
TTITLE17=Conway Twitty - ( Lost her love ) On our last date
TTITLE18=Bobby Sykes - Someday ( You'll want me to want you )
TTITLE19=Lee Greenwood - Ring on her finger, time on her hands
TTITLE20=Merle Haggard - The emptiest arms in the world 
TTITLE21=Janie Fricke - He's a heartache ( looking for a place to happ
TTITLE21=en )
TTITLE22=Kenny Rogers - Unchained melody
EXTD=
EXTT0=
EXTT1=
EXTT2=
EXTT3=
EXTT4=
EXTT5=
EXTT6=
EXTT7=
EXTT8=
EXTT9=
EXTT10=
EXTT11=
EXTT12=
EXTT13=
EXTT14=
EXTT15=
EXTT16=
EXTT17=
EXTT18=
EXTT19=
EXTT20=
EXTT21=
EXTT22=
PLAYORDER=
